<svg xmlns="http://www.w3.org/2000/svg" xmlns:xlink="http://www.w3.org/1999/xlink" width="59" height="200" viewBox="0 0 59 200"><defs><path id="uw3ya" d="M656 1117c-15.46 0-28-7.16-28-16s12.54-16 28-16 28 7.16 28 16-12.54 16-28 16zm0-29c-13.8 0-25 5.82-25 13s11.2 13 25 13 25-5.82 25-13-11.2-13-25-13z"/><path id="uw3yb" d="M628 1102h3v180h-3zm53 0h3v180h-3z"/><linearGradient id="uw3yc" x1="656" x2="656" y1="1282" y2="1102" gradientUnits="userSpaceOnUse"><stop offset="0" stop-color="#898989" stop-opacity="0"/><stop offset="1" stop-color="#898989"/></linearGradient></defs><g><g transform="translate(-626 -1083)"><use fill="#8b8b8b" xlink:href="#uw3ya"/></g><g transform="translate(-626 -1083)"><use fill="url(#uw3yc)" xlink:href="#uw3yb"/></g></g></svg>