<svg xmlns="http://www.w3.org/2000/svg" xmlns:xlink="http://www.w3.org/1999/xlink" width="59" height="200" viewBox="0 0 59 200"><defs><path id="gbbma" d="M636 894c-.02 0 5.37-3.5 11-5 5.5-1.47 11-1 11-1"/><path id="gbbmb" d="M678 903.6c.02 0-5.28 3.7-10.82 5.28-5.42 1.55-10.83 1.05-10.83 1.05"/><path id="gbbmc" d="M628 1081V899h56v182z"/><path id="gbbme" d="M656 884c15.46 0 28 7.16 28 16s-12.54 16-28 16-28-7.16-28-16 12.54-16 28-16z"/><linearGradient id="gbbmd" x1="656" x2="656" y1="1081" y2="899" gradientUnits="userSpaceOnUse"><stop offset="0" stop-color="#ddd" stop-opacity="0"/><stop offset=".46" stop-color="#adadad" stop-opacity=".72"/><stop offset="1" stop-color="#adadad"/></linearGradient><clipPath id="gbbmf"><use fill="#fff" xlink:href="#gbbma"/></clipPath><clipPath id="gbbmg"><use fill="#fff" xlink:href="#gbbmb"/></clipPath></defs><g><g transform="translate(-626 -882)"><g><use fill="url(#gbbmd)" xlink:href="#gbbmc"/></g><g><use fill="#3e2d20" xlink:href="#gbbme"/></g><g><use fill="#fff" fill-opacity="0" stroke="#6d503b" stroke-linecap="round" stroke-miterlimit="50" stroke-width="6" clip-path="url(&quot;#gbbmf&quot;)" xlink:href="#gbbma"/></g><g><use fill="#fff" fill-opacity="0" stroke="#6d503b" stroke-linecap="round" stroke-miterlimit="50" stroke-width="6" clip-path="url(&quot;#gbbmg&quot;)" xlink:href="#gbbmb"/></g></g></g></svg>